<?xml version="1.0" encoding="UTF-8" standalone="no"?>
<!DOCTYPE svg PUBLIC "-//W3C//DTD SVG 1.1//EN" "http://www.w3.org/Graphics/SVG/1.1/DTD/svg11.dtd">
<svg width="100%" height="100%" viewBox="0 0 100 100" version="1.1" xmlns="http://www.w3.org/2000/svg" xmlns:xlink="http://www.w3.org/1999/xlink" xml:space="preserve" xmlns:serif="http://www.serif.com/" style="fill-rule:evenodd;clip-rule:evenodd;stroke-linejoin:round;stroke-miterlimit:2;">
    <g transform="matrix(1,0,0,1,-0.331577,-0.00648879)">
        <g>
            <path d="M5.236,49.16L4.899,50L5.235,50.84C12.613,69.242 30.184,81.133 50,81.133C69.816,81.133 87.387,69.242 94.764,50.84L95.101,50L94.765,49.16C87.387,30.758 69.816,18.867 50,18.867C30.184,18.867 12.613,30.758 5.236,49.16ZM50,23.379C67.658,23.379 83.35,33.798 90.229,50C83.35,66.202 67.658,76.621 50,76.621C32.342,76.621 16.65,66.202 9.771,50C16.65,33.798 32.342,23.379 50,23.379Z" style="fill:rgb(255,94,21);fill-rule:nonzero;"/>
            <path d="M50,67.251C59.512,67.251 67.251,59.512 67.251,50C67.251,40.488 59.512,32.749 50,32.749C40.488,32.749 32.749,40.488 32.749,50C32.749,59.512 40.488,67.251 50,67.251ZM50,36.809C57.273,36.809 63.19,42.727 63.19,50C63.19,57.273 57.273,63.191 50,63.191C42.727,63.191 36.81,57.273 36.81,50C36.81,42.727 42.727,36.809 50,36.809Z" style="fill:rgb(255,94,21);fill-rule:nonzero;"/>
            <path d="M29.49,60.939C28.05,61.99 27.73,64.019 28.78,65.469C29.42,66.339 30.4,66.799 31.4,66.799C32.07,66.799 32.74,66.589 33.31,66.169C34.76,65.119 35.07,63.089 34.02,61.648C32.96,60.2 30.94,59.89 29.49,60.939Z" style="fill:rgb(255,94,21);fill-rule:nonzero;"/>
            <path d="M69.77,49.92L69.77,50C69.77,51.79 71.22,53.24 73.01,53.24C74.8,53.24 76.25,51.79 76.25,50L76.25,49.889C76.24,48.099 74.79,46.66 73,46.669C71.21,46.67 69.76,48.13 69.77,49.92Z" style="fill:rgb(255,94,21);fill-rule:nonzero;"/>
            <path d="M43.91,68.819C42.21,68.269 40.38,69.2 39.83,70.91C39.28,72.609 40.21,74.43 41.92,74.979C42.25,75.089 42.58,75.139 42.92,75.139C44.28,75.139 45.55,74.269 46,72.899C46.55,71.2 45.61,69.37 43.91,68.819Z" style="fill:rgb(255,94,21);fill-rule:nonzero;"/>
            <path d="M56.13,68.81C54.42,69.36 53.5,71.19 54.05,72.89C54.49,74.26 55.76,75.13 57.13,75.13C57.46,75.13 57.8,75.08 58.13,74.97C59.83,74.41 60.76,72.59 60.21,70.88C59.66,69.18 57.83,68.25 56.13,68.81Z" style="fill:rgb(255,94,21);fill-rule:nonzero;"/>
            <path d="M56.05,31.17C56.38,31.27 56.71,31.319 57.04,31.319C58.41,31.319 59.69,30.45 60.13,29.069C60.67,27.37 59.74,25.54 58.03,25C56.33,24.45 54.51,25.39 53.96,27.09C53.41,28.79 54.35,30.62 56.05,31.17Z" style="fill:rgb(255,94,21);fill-rule:nonzero;"/>
            <path d="M70.53,60.899C69.08,59.849 67.06,60.17 66,61.609C64.95,63.059 65.27,65.089 66.72,66.139C67.3,66.559 67.96,66.759 68.62,66.759C69.62,66.759 70.61,66.299 71.25,65.429C72.3,63.979 71.98,61.95 70.53,60.899Z" style="fill:rgb(255,94,21);fill-rule:nonzero;"/>
            <path d="M68.57,39.64C69.24,39.64 69.91,39.44 70.49,39.02C71.93,37.96 72.24,35.93 71.18,34.491C70.12,33.041 68.1,32.73 66.65,33.791C65.21,34.851 64.9,36.881 65.96,38.32C66.59,39.189 67.58,39.64 68.57,39.64Z" style="fill:rgb(255,94,21);fill-rule:nonzero;"/>
            <path d="M26.99,53.29C28.78,53.28 30.23,51.83 30.23,50.04C30.22,48.25 28.77,46.8 26.98,46.81C25.19,46.81 23.75,48.26 23.75,50.05C23.75,51.84 25.2,53.29 26.99,53.29Z" style="fill:rgb(255,94,21);fill-rule:nonzero;"/>
            <path d="M42.82,31.37C43.16,31.37 43.5,31.309 43.83,31.2L43.83,31.21C45.54,30.649 46.46,28.819 45.91,27.12C45.35,25.42 43.52,24.49 41.82,25.05C40.12,25.6 39.19,27.44 39.75,29.13C40.2,30.5 41.46,31.37 42.82,31.37Z" style="fill:rgb(255,94,21);fill-rule:nonzero;"/>
            <path d="M29.45,39.14C30.02,39.56 30.69,39.76 31.34,39.76C32.35,39.76 33.34,39.29 33.97,38.42C35.02,36.97 34.7,34.94 33.25,33.89C31.8,32.84 29.77,33.17 28.72,34.62C27.67,36.069 28,38.09 29.45,39.14Z" style="fill:rgb(255,94,21);fill-rule:nonzero;"/>
        </g>
    </g>
</svg>
