<?xml version="1.0" encoding="UTF-8" standalone="no"?>
<!DOCTYPE svg PUBLIC "-//W3C//DTD SVG 1.1//EN" "http://www.w3.org/Graphics/SVG/1.1/DTD/svg11.dtd">
<svg width="100%" height="100%" viewBox="0 0 64 64" version="1.1" xmlns="http://www.w3.org/2000/svg" xmlns:xlink="http://www.w3.org/1999/xlink" xml:space="preserve" xmlns:serif="http://www.serif.com/" style="fill-rule:evenodd;clip-rule:evenodd;stroke-linejoin:round;stroke-miterlimit:2;">
    <rect x="14" y="6" width="2" height="2" style="fill:rgb(255,94,21);"/>
    <rect x="18" y="6" width="2" height="2" style="fill:rgb(255,94,21);"/>
    <rect x="22" y="6" width="2" height="2" style="fill:rgb(255,94,21);"/>
    <path d="M3,62L34,62C34.549,62 35,61.549 35,61C35,60.735 34.894,60.48 34.707,60.293L3.707,29.293C3.52,29.106 3.265,29 3,29C2.451,29 2,29.451 2,30L2,61C2,61.549 2.451,62 3,62ZM4,32.414L31.586,60L4,60L4,32.414Z" style="fill:rgb(255,94,21);fill-rule:nonzero;"/>
    <path d="M19.707,54.293L9.707,44.293C9.52,44.106 9.265,44 9,44C8.451,44 8,44.451 8,45L8,55C8,55.549 8.451,56 9,56L19,56C19.549,56 20,55.549 20,55C20,54.735 19.894,54.48 19.707,54.293ZM10,54L10,47.414L16.586,54L10,54Z" style="fill:rgb(255,94,21);fill-rule:nonzero;"/>
    <path d="M60.878,10.536C61.596,9.818 61.999,8.844 61.999,7.829C61.999,5.729 60.271,4.001 58.171,4.001C57.156,4.001 56.182,4.404 55.464,5.122L53.964,6.622C53.772,4.035 51.594,2.007 49,2L15,2C12.258,2.003 10.003,4.258 10,7L10,33L12,33L12,7C12,5.354 13.354,4 15,4L49,4C50.646,4 52,5.354 52,7L52,8.586L42.586,18L35.236,18C33.592,13.791 29.513,11.005 24.994,11.005C18.963,11.005 13.999,15.968 13.999,22C13.999,27.657 18.366,32.438 24,32.95L24,37C24,37.549 24.451,38 25,38L47,38C47.549,38 48,37.549 48,37L48,23.414L52,19.414L52,40L29,40C28.451,40 28,40.451 28,41L28,49C28,49.549 28.451,50 29,50L52,50L52,51C52,52.646 50.646,54 49,54L33,54L33,56L49,56C51.742,55.997 53.997,53.742 54,51L54,50L61,50C61.549,50 62,49.549 62,49L62,41C62,40.451 61.549,40 61,40L54,40L54,17.414L60.878,10.536ZM56.878,6.536C57.223,6.176 57.7,5.972 58.199,5.972C59.202,5.972 60.028,6.798 60.028,7.801C60.028,8.3 59.824,8.777 59.464,9.122L59,9.586L56.414,7L56.878,6.536ZM34,22C33.994,26.558 30.53,30.43 26,30.941L26,20L33.768,20C33.92,20.656 33.998,21.327 34,22ZM24,19L24,30.941C19.461,30.441 15.985,26.562 15.985,21.995C15.985,17.058 20.048,12.995 24.985,12.995C28.401,12.995 31.534,14.939 33.05,18L25,18C24.451,18 24,18.451 24,19ZM46,36L26,36L26,32.95C31.629,32.457 36,27.687 36,22.037C36,21.353 35.936,20.671 35.809,20L40.586,20L38.293,22.293C38.153,22.432 38.058,22.61 38.02,22.804L37.02,27.804C37.007,27.869 37.001,27.934 37.001,28C37.001,28.548 37.452,29 38,29C38.067,29.001 38.134,28.994 38.2,28.98L43.2,27.98C43.394,27.942 43.572,27.847 43.711,27.707L46,25.414L46,36ZM39.614,25.028L40.972,26.386L39.272,26.725L39.614,25.028ZM56,42L56,44L58,44L58,42L60,42L60,48L30,48L30,42L32,42L32,44L34,44L34,42L36,42L36,44L38,44L38,42L40,42L40,44L42,44L42,42L44,42L44,44L46,44L46,42L48,42L48,44L50,44L50,42L52,42L52,44L54,44L54,42L56,42ZM43,25.586L40.414,23L55,8.414L57.586,11L43,25.586Z" style="fill:rgb(255,94,21);fill-rule:nonzero;"/>
</svg>
