<?xml version="1.0" encoding="UTF-8" standalone="no"?>
<!DOCTYPE svg PUBLIC "-//W3C//DTD SVG 1.1//EN" "http://www.w3.org/Graphics/SVG/1.1/DTD/svg11.dtd">
<svg width="100%" height="100%" viewBox="0 0 64 64" version="1.1" xmlns="http://www.w3.org/2000/svg" xmlns:xlink="http://www.w3.org/1999/xlink" xml:space="preserve" xmlns:serif="http://www.serif.com/" style="fill-rule:evenodd;clip-rule:evenodd;stroke-linejoin:round;stroke-miterlimit:2;">
    <g transform="matrix(1,0,0,1,-0.0257475,-0.218854)">
        <path d="M43,46C43,44.346 41.654,43 40,43C38.346,43 37,44.346 37,46C37,47.302 37.839,48.402 39,48.816L39,51.185C37.839,51.599 37,52.699 37,54.001C37,55.655 38.346,57.001 40,57.001C41.654,57.001 43,55.655 43,54.001C43,52.699 42.161,51.599 41,51.185L41,48.816C42.161,48.402 43,47.302 43,46ZM40,45C40.551,45 41,45.449 41,46C41,46.551 40.551,47 40,47C39.449,47 39,46.551 39,46C39,45.449 39.449,45 40,45ZM40,55C39.449,55 39,54.551 39,54C39,53.449 39.449,53 40,53C40.551,53 41,53.449 41,54C41,54.551 40.551,55 40,55Z" style="fill:rgb(255,94,21);fill-rule:nonzero;"/>
        <path d="M63,17.586L56.414,11L54.816,11C54.402,9.839 53.302,9 52,9C50.346,9 49,10.346 49,12C49,13.302 49.839,14.402 51,14.816L51,16L45.414,16L42.699,13.285C42.887,12.894 43,12.462 43,12C43,10.346 41.654,9 40,9C38.346,9 37,10.346 37,12C37,13.654 38.346,15 40,15C40.462,15 40.894,14.887 41.285,14.699L44.586,18L51,18L51,19.586L47.586,23L46.816,23C46.402,21.839 45.302,21 44,21C42.346,21 41,22.346 41,24C41,24.462 41.113,24.894 41.301,25.285L40.228,26.358C39.716,25.201 38.962,24.151 37.999,23.289C36.093,21.584 33.525,20.765 30.969,21.057C27.774,21.414 25.049,23.512 23.777,26.361L22.701,25.285C22.887,24.894 23,24.462 23,24C23,22.346 21.654,21 20,21C18.698,21 17.598,21.839 17.184,23L16.414,23L13,19.586L13,14.816C14.161,14.402 15,13.302 15,12C15,11.278 14.734,10.625 14.308,10.106L19.414,5L26.586,5L31,9.414L31,13.586L29.586,15L27.816,15C27.402,13.839 26.302,13 25,13C23.346,13 22,14.346 22,16C22,17.654 23.346,19 25,19C26.302,19 27.402,18.161 27.816,17L30.414,17L33,14.414L33,9.414L37.414,5L45.184,5C45.598,6.161 46.698,7 48,7C49.654,7 51,5.654 51,4C51,2.346 49.654,1 48,1C46.698,1 45.598,1.839 45.184,3L36.586,3L32,7.586L27.414,3L18.586,3L12.532,9.054C12.359,9.023 12.182,9 12,9C10.698,9 9.598,9.839 9.184,11L7.586,11L1,17.586L1,29.414L3.301,31.715C3.113,32.106 3,32.538 3,33C3,33.462 3.113,33.894 3.301,34.285L1,36.586L1,45.414L6.586,51L9.184,51C9.486,51.847 10.153,52.514 11,52.816L11,56.414L17.586,63L26.414,63L32,57.414L37.586,63L46.414,63L53,56.414L53,52.816C53.847,52.514 54.514,51.847 54.816,51L57.414,51L63,45.414L63,36.586L60.699,34.285C60.887,33.894 61,33.462 61,33C61,32.538 60.887,32.106 60.699,31.715L63,29.414L63,17.586ZM39,12C39,11.449 39.449,11 40,11C40.551,11 41,11.449 41,12C41,12.551 40.551,13 40,13C39.449,13 39,12.551 39,12ZM25,17C24.449,17 24,16.551 24,16C24,15.449 24.449,15 25,15C25.551,15 26,15.449 26,16C26,16.551 25.551,17 25,17ZM48,3C48.551,3 49,3.449 49,4C49,4.551 48.551,5 48,5C47.449,5 47,4.551 47,4C47,3.449 47.449,3 48,3ZM52,11C52.551,11 53,11.449 53,12C53,12.551 52.551,13 52,13C51.449,13 51,12.551 51,12C51,11.449 51.449,11 52,11ZM44,23C44.551,23 45,23.449 45,24C45,24.551 44.551,25 44,25C43.449,25 43,24.551 43,24C43,23.449 43.449,23 44,23ZM25.055,29.113C25.442,25.951 28.022,23.4 31.19,23.046C31.465,23.015 31.738,23 32.009,23C33.736,23 35.365,23.618 36.665,24.781C38.149,26.108 39,28.01 39,30C39,31.9 38.235,33.685 36.886,35L33,35L33,32.816C34.161,32.402 35,31.302 35,30C35,28.346 33.654,27 32,27C30.346,27 29,28.346 29,30C29,31.302 29.839,32.402 31,32.816L31,35L27.122,35C25.556,33.475 24.783,31.325 25.055,29.113ZM32,49C31.449,49 31,48.551 31,48C31,47.449 31.449,47 32,47C32.551,47 33,47.449 33,48C33,48.551 32.551,49 32,49ZM29,41C28.449,41 28,40.551 28,40L28,37L36,37L36,40C36,40.551 35.551,41 35,41L29,41ZM31,30C31,29.449 31.449,29 32,29C32.551,29 33,29.449 33,30C33,30.551 32.551,31 32,31C31.449,31 31,30.551 31,30ZM20,23C20.551,23 21,23.449 21,24C21,24.551 20.551,25 20,25C19.449,25 19,24.551 19,24C19,23.449 19.449,23 20,23ZM12,11C12.551,11 13,11.449 13,12C13,12.551 12.551,13 12,13C11.449,13 11,12.551 11,12C11,11.449 11.449,11 12,11ZM6,34C5.449,34 5,33.551 5,33C5,32.449 5.449,32 6,32C6.551,32 7,32.449 7,33C7,33.551 6.551,34 6,34ZM11,50C11,49.449 11.449,49 12,49C12.551,49 13,49.449 13,50C13,50.551 12.551,51 12,51C11.449,51 11,50.551 11,50ZM25.586,61L18.414,61L13,55.586L13,52.816C14.161,52.402 15,51.302 15,50C15,48.346 13.654,47 12,47C10.698,47 9.598,47.839 9.184,49L7.414,49L3,44.586L3,37.414L4.715,35.699C5.106,35.887 5.538,36 6,36C6.462,36 6.894,35.887 7.285,35.699L10.586,39L13.184,39C13.598,40.161 14.698,41 16,41C17.654,41 19,39.654 19,38C19,36.346 17.654,35 16,35C14.698,35 13.598,35.839 13.184,37L11.414,37L8.699,34.285C8.887,33.894 9,33.462 9,33C9,31.346 7.654,30 6,30C5.538,30 5.106,30.113 4.715,30.301L3,28.586L3,18.414L8.414,13L9.184,13C9.486,13.847 10.153,14.514 11,14.816L11,20.414L15.586,25L17.184,25C17.598,26.161 18.698,27 20,27C20.462,27 20.894,26.887 21.285,26.699L23.124,28.538C23.106,28.648 23.082,28.757 23.069,28.869C22.705,31.84 23.796,34.732 26,36.702L26,40C26,41.654 27.346,43 29,43L31,43L31,45.184C29.839,45.598 29,46.698 29,48C29,49.302 29.839,50.402 31,50.816L31,55.586L25.586,61ZM15,38C15,37.449 15.449,37 16,37C16.551,37 17,37.449 17,38C17,38.551 16.551,39 16,39C15.449,39 15,38.551 15,38ZM52,51C51.449,51 51,50.551 51,50C51,49.449 51.449,49 52,49C52.551,49 53,49.449 53,50C53,50.551 52.551,51 52,51ZM57,33C57,32.449 57.449,32 58,32C58.551,32 59,32.449 59,33C59,33.551 58.551,34 58,34C57.449,34 57,33.551 57,33ZM61,28.586L59.285,30.301C58.894,30.113 58.462,30 58,30C56.346,30 55,31.346 55,33C55,33.462 55.113,33.894 55.301,34.285L52.586,37L50.816,37C50.402,35.839 49.302,35 48,35C46.346,35 45,36.346 45,38C45,39.654 46.346,41 48,41C49.302,41 50.402,40.161 50.816,39L53.414,39L56.715,35.699C57.106,35.887 57.538,36 58,36C58.462,36 58.894,35.887 59.285,35.699L61,37.414L61,44.586L56.586,49L54.816,49C54.402,47.839 53.302,47 52,47C50.346,47 49,48.346 49,50C49,51.302 49.839,52.402 51,52.816L51,55.586L45.586,61L38.414,61L33,55.586L33,50.816C34.161,50.402 35,49.302 35,48C35,46.698 34.161,45.598 33,45.184L33,43L35,43C36.654,43 38,41.654 38,40L38,36.703C39.913,34.993 41,32.577 41,30C41,29.509 40.948,29.024 40.869,28.545L42.715,26.699C43.106,26.887 43.538,27 44,27C45.302,27 46.402,26.161 46.816,25L48.414,25L53,20.414L53,14.816C53.847,14.514 54.514,13.847 54.816,13L55.586,13L61,18.414L61,28.586ZM49,38C49,38.551 48.551,39 48,39C47.449,39 47,38.551 47,38C47,37.449 47.449,37 48,37C48.551,37 49,37.449 49,38Z" style="fill:rgb(255,94,21);fill-rule:nonzero;"/>
        <path d="M24,43C22.346,43 21,44.346 21,46C21,47.302 21.839,48.402 23,48.816L23,49.586L21.285,51.301C20.894,51.113 20.462,51 20,51C18.346,51 17,52.346 17,54C17,55.654 18.346,57 20,57C21.654,57 23,55.654 23,54C23,53.538 22.887,53.106 22.699,52.715L25,50.414L25,48.816C26.161,48.402 27,47.302 27,46C27,44.346 25.654,43 24,43ZM20,55C19.449,55 19,54.551 19,54C19,53.449 19.449,53 20,53C20.551,53 21,53.449 21,54C21,54.551 20.551,55 20,55ZM24,47C23.449,47 23,46.551 23,46C23,45.449 23.449,45 24,45C24.551,45 25,45.449 25,46C25,46.551 24.551,47 24,47Z" style="fill:rgb(255,94,21);fill-rule:nonzero;"/>
    </g>
</svg>
