<?xml version="1.0" encoding="UTF-8" standalone="no"?>
<!DOCTYPE svg PUBLIC "-//W3C//DTD SVG 1.1//EN" "http://www.w3.org/Graphics/SVG/1.1/DTD/svg11.dtd">
<svg width="100%" height="100%" viewBox="0 0 100 100" version="1.1" xmlns="http://www.w3.org/2000/svg" xmlns:xlink="http://www.w3.org/1999/xlink" xml:space="preserve" xmlns:serif="http://www.serif.com/" style="fill-rule:evenodd;clip-rule:evenodd;stroke-miterlimit:2;">
    <g transform="matrix(1,0,0,1,0,-12.5)">
        <g transform="matrix(1,0,0,1,0,12)">
            <path d="M93.2,65.4L93.2,6.8L65.7,6.8L50.4,22.6L93.2,65.4Z" style="fill:none;fill-rule:nonzero;stroke:rgb(255,94,21);stroke-width:4.5px;"/>
        </g>
        <g transform="matrix(1,0,0,1,0,12)">
            <path d="M44.8,28.4L6.8,68L6.8,93.2L32.9,93.2L71.3,54.8L44.8,28.4Z" style="fill:none;fill-rule:nonzero;stroke:rgb(255,94,21);stroke-width:4.5px;"/>
        </g>
        <g transform="matrix(1,0,0,1,0,12)">
            <path d="M6.8,6.8L6.8,44.8L43.4,6.8L6.8,6.8Z" style="fill:none;fill-rule:nonzero;stroke:rgb(255,94,21);stroke-width:4.5px;"/>
        </g>
        <g transform="matrix(1,0,0,1,0,12)">
            <path d="M44.2,93.2L93.2,93.2L93.2,76.8L76.9,60.5L44.2,93.2Z" style="fill:none;fill-rule:nonzero;stroke:rgb(255,94,21);stroke-width:4.5px;"/>
        </g>
    </g>
</svg>
