<?xml version="1.0" encoding="UTF-8" standalone="no"?>
<!DOCTYPE svg PUBLIC "-//W3C//DTD SVG 1.1//EN" "http://www.w3.org/Graphics/SVG/1.1/DTD/svg11.dtd">
<svg width="100%" height="100%" viewBox="0 0 100 100" version="1.1" xmlns="http://www.w3.org/2000/svg" xmlns:xlink="http://www.w3.org/1999/xlink" xml:space="preserve" xmlns:serif="http://www.serif.com/" style="fill-rule:evenodd;clip-rule:evenodd;stroke-linejoin:round;stroke-miterlimit:2;">
    <g transform="matrix(1,0,0,1,-0.258254,0.0227108)">
        <g>
            <g>
                <path d="M95.5,58.5L84.3,58.5L84.3,58.3C85.3,57 85.8,55.5 85.8,53.8C85.8,49.7 82.5,46.3 78.3,46.3C74.2,46.3 70.8,49.6 70.8,53.8C70.8,55.4 71.3,57 72.3,58.3L61.1,58.5C60,58.5 59.1,59.4 59.1,60.5L59.1,73.5C59.1,73.8 59.1,74.1 59.2,74.5C59.5,75.3 60.2,75.8 61.1,75.8L64,75.8C64.5,75.8 65,75.6 65.4,75.2C66,74.6 66.9,74.3 67.7,74.3C69.6,74.3 71.2,75.9 71.2,77.8C71.2,79.7 69.6,81.3 67.7,81.3C66.8,81.3 66,81 65.4,80.4C65,80 64.5,79.8 64,79.8L61.1,79.8C60.3,79.8 59.5,80.3 59.2,81.1C59.1,81.4 59.1,81.7 59.1,82L59.1,95.1C59.1,96.2 60,97.1 61.1,97.1L95.5,97.1C96.6,97.1 97.5,96.2 97.5,95.1L97.5,60.5C97.5,59.4 96.6,58.5 95.5,58.5ZM93.6,92.9L63.1,92.9L63.1,83.7L63.2,83.7C64.5,84.7 66,85.2 67.7,85.2C71.8,85.2 75.2,81.9 75.2,77.7C75.2,73.6 71.9,70.2 67.7,70.2C66.1,70.2 64.5,70.7 63.2,71.7L63.1,62.5L74.2,62.5C74.8,62.6 75.4,62.3 75.8,61.9C76.2,61.5 76.4,60.8 76.4,60.2L76.4,57.6C76.4,57.1 76.2,56.6 75.8,56.2C75.2,55.6 74.9,54.7 74.9,53.9C74.9,52 76.5,50.4 78.4,50.4C80.3,50.4 81.9,52 81.9,53.9C81.9,54.8 81.6,55.6 81,56.2C80.6,56.6 80.4,57.1 80.4,57.6L80.4,60.4C80.4,60.7 80.5,61.1 80.6,61.4C81,62.2 81.8,62.6 82.6,62.5L93.6,62.5L93.6,92.9Z" style="fill:rgb(255,94,21);fill-rule:nonzero;"/>
                <path d="M73.4,41.5C74.5,41.5 75.4,40.6 75.4,39.5L75.4,5.1C75.4,4.6 75.2,4.1 74.8,3.7C74.4,3.3 73.9,3.1 73.4,3.1L4.5,3.1C3.4,3.1 2.5,4 2.5,5.1L2.5,74C2.5,75.1 3.4,76 4.5,76L39,76C39.5,76 40,75.8 40.4,75.4C40.8,75 41,74.5 41,74L41,62.7L41.1,62.7C42.4,63.7 43.9,64.2 45.6,64.2C49.7,64.2 53.1,60.9 53.1,56.7C53.1,52.6 49.8,49.2 45.6,49.2C44,49.2 42.4,49.7 41.1,50.7L41,41.5L52,41.5C52.5,41.5 52.9,41.4 53.3,41.1C53.9,40.7 54.2,39.9 54.1,39.2L54.1,36.6C54.1,36.1 53.9,35.6 53.5,35.2C52.9,34.6 52.6,33.7 52.6,32.9C52.6,31 54.2,29.4 56.1,29.4C58,29.4 59.6,31 59.6,32.9C59.6,33.8 59.3,34.6 58.7,35.2C58.3,35.6 58.1,36.1 58.1,36.6L58.1,39.4C58.1,39.8 58.2,40.2 58.4,40.5C58.8,41.2 59.6,41.6 60.3,41.5L73.4,41.5ZM37,7.1L37,16.3L36.8,16.3C35.5,15.3 34,14.8 32.3,14.8C28.2,14.8 24.8,18.1 24.8,22.3C24.8,26.4 28.1,29.8 32.3,29.8C33.9,29.8 35.5,29.3 36.8,28.3L37,37.5L25.7,37.5C25.3,37.5 24.9,37.6 24.5,37.9C24,38.3 23.7,38.9 23.7,39.5L23.7,42.4C23.7,42.9 23.9,43.4 24.3,43.8C24.9,44.4 25.2,45.3 25.2,46.1C25.2,48 23.6,49.6 21.7,49.6C19.8,49.6 18.2,48 18.2,46.1C18.2,45.2 18.5,44.4 19.1,43.8C19.5,43.4 19.7,42.9 19.7,42.4L19.7,39.5C19.7,39 19.5,38.6 19.3,38.2C18.9,37.7 18.3,37.4 17.7,37.4L6.5,37.4L6.5,7.1L37,7.1ZM41.8,54.7C42.3,54.7 42.8,54.5 43.2,54.1C43.8,53.5 44.7,53.2 45.5,53.2C47.4,53.2 49,54.8 49,56.7C49,58.6 47.4,60.2 45.5,60.2C44.6,60.2 43.8,59.9 43.2,59.3C42.8,58.9 42.3,58.7 41.8,58.7L38.9,58.7C38,58.7 37.3,59.3 37,60.1C36.9,60.4 36.9,60.6 36.9,60.9L36.9,72L6.5,72L6.5,41.5L15.7,41.5L15.7,41.7C14.7,43 14.2,44.5 14.2,46.2C14.2,50.3 17.5,53.7 21.7,53.7C25.8,53.7 29.2,50.4 29.2,46.2C29.2,44.6 28.7,43 27.7,41.7L36.9,41.6L36.9,52.5C36.9,52.8 36.9,53.1 37,53.5C37.3,54.3 38,54.8 38.9,54.8L41.8,54.8L41.8,54.7ZM56.2,25.4C52.1,25.4 48.7,28.7 48.7,32.9C48.7,34.5 49.2,36.1 50.2,37.4L41,37.5L41,26.3C41,25.5 40.6,24.9 39.9,24.5C39.6,24.3 39.2,24.3 38.9,24.3L36,24.3C35.5,24.3 35,24.5 34.6,24.9C34,25.5 33.1,25.8 32.3,25.8C30.4,25.8 28.8,24.2 28.8,22.3C28.8,20.4 30.4,18.8 32.3,18.8C33.2,18.8 34,19.1 34.6,19.7C35,20.1 35.5,20.3 36,20.3L38.7,20.3C39.1,20.4 39.5,20.3 39.8,20.1C40.5,19.8 40.9,19.1 40.9,18.3L40.9,7.1L71.3,7.1L71.3,37.5L62.1,37.5L62.1,37.3C63.1,36 63.6,34.5 63.6,32.8C63.6,28.8 60.3,25.4 56.2,25.4Z" style="fill:rgb(255,94,21);fill-rule:nonzero;"/>
            </g>
        </g>
    </g>
</svg>
