<?xml version="1.0" encoding="UTF-8" standalone="no"?>
<!DOCTYPE svg PUBLIC "-//W3C//DTD SVG 1.1//EN" "http://www.w3.org/Graphics/SVG/1.1/DTD/svg11.dtd">
<svg width="100%" height="100%" viewBox="0 0 100 100" version="1.1" xmlns="http://www.w3.org/2000/svg" xmlns:xlink="http://www.w3.org/1999/xlink" xml:space="preserve" xmlns:serif="http://www.serif.com/" style="fill-rule:evenodd;clip-rule:evenodd;stroke-linejoin:round;stroke-miterlimit:2;">
    <g transform="matrix(1.66231,0,0,1.66231,-2.94981,-3.85482)">
        <path d="M39.12,58.737L39.12,59.1L24.88,59.1L24.88,58.737C24.88,55.742 27.344,53.278 30.339,53.278L33.661,53.278C36.656,53.278 39.12,55.742 39.12,58.737ZM16.361,53.282L13.04,53.282C10.045,53.282 7.581,55.746 7.581,58.741L7.581,59.1L21.821,59.1L21.821,58.737C21.818,55.744 19.354,53.282 16.361,53.282ZM19.782,46.006C19.781,43.219 17.488,40.926 14.701,40.926C11.914,40.926 9.62,43.22 9.62,46.007C9.62,48.794 11.913,51.087 14.7,51.088L14.701,51.088C17.488,51.088 19.782,48.794 19.782,46.007L19.782,46.006ZM37.082,46.006C37.081,43.219 34.788,40.926 32.001,40.926C29.214,40.926 26.92,43.22 26.92,46.007C26.92,48.794 29.213,51.087 32,51.088C34.787,51.088 37.081,48.794 37.081,46.007L37.081,46.006L37.082,46.006ZM59.03,6.4L59.03,36.31C59.03,37.133 58.353,37.81 57.53,37.81L45.97,37.81L46.02,34.81L46.14,30.66C46.182,29.178 45.12,27.876 43.66,27.62L22.11,23.77C22.052,23.76 21.993,23.754 21.934,23.754C21.386,23.754 20.934,24.206 20.934,24.754C20.934,24.79 20.936,24.825 20.94,24.86C21.019,26.422 22.107,27.762 23.62,28.16C25.35,28.6 33.08,31.69 33.08,31.69L33.08,37.81L6.47,37.81C5.647,37.81 4.97,37.133 4.97,36.31L4.97,6.4C4.97,5.577 5.647,4.9 6.47,4.9L57.53,4.9C58.353,4.9 59.03,5.577 59.03,6.4ZM44.77,19.636C44.77,16.926 42.54,14.696 39.83,14.696C37.12,14.696 34.89,16.926 34.89,19.636C34.89,22.346 37.12,24.576 39.83,24.576C42.539,24.574 44.768,22.345 44.77,19.636ZM50.959,53.282L47.639,53.282C44.644,53.282 42.18,55.746 42.179,58.741L42.179,59.1L56.419,59.1L56.419,58.737C56.417,55.743 53.953,53.281 50.959,53.282ZM54.38,46.006C54.379,43.219 52.086,40.926 49.299,40.926C46.512,40.926 44.218,43.22 44.218,46.007C44.218,48.794 46.512,51.088 49.299,51.088L49.3,51.088C52.087,51.087 54.38,48.794 54.38,46.007L54.38,46.006Z" style="fill:none;fill-rule:nonzero;stroke:rgb(255,94,21);stroke-width:2.41px;"/>
    </g>
</svg>
