<?xml version="1.0" encoding="UTF-8" standalone="no"?>
<!DOCTYPE svg PUBLIC "-//W3C//DTD SVG 1.1//EN" "http://www.w3.org/Graphics/SVG/1.1/DTD/svg11.dtd">
<svg width="100%" height="100%" viewBox="0 0 500 500" version="1.1" xmlns="http://www.w3.org/2000/svg" xmlns:xlink="http://www.w3.org/1999/xlink" xml:space="preserve" xmlns:serif="http://www.serif.com/" style="fill-rule:evenodd;clip-rule:evenodd;stroke-linejoin:round;stroke-miterlimit:2;">
    <g transform="matrix(1,0,0,1,81.1916,22.2248)">
        <path d="M168.987,13.192L190.134,196.373L147.841,196.373L168.987,13.192Z" style="fill:rgb(128,1,0);"/>
    </g>
    <g transform="matrix(6.12323e-17,-1,1,6.12323e-17,33.8083,412.134)">
        <path d="M168.987,13.192L190.134,196.373L147.841,196.373L168.987,13.192Z" style="fill:rgb(77,77,77);"/>
    </g>
    <g transform="matrix(-1,-1.22465e-16,1.22465e-16,-1,419.167,459.192)">
        <path d="M168.987,13.192L190.134,196.373L147.841,196.373L168.987,13.192Z" style="fill:rgb(77,77,77);"/>
    </g>
    <g transform="matrix(0.87963,0,0,1.01946,52.3778,14.1383)">
        <rect x="200.828" y="203.894" width="48.088" height="41.493" style="fill:rgb(77,77,77);"/>
    </g>
    <g transform="matrix(-1.83697e-16,1,-1,-1.83697e-16,466.232,74.1595)">
        <path d="M168.987,13.192L190.134,196.373L147.841,196.373L168.987,13.192Z" style="fill:rgb(77,77,77);"/>
    </g>
</svg>
